<?xml version="1.0" standalone="no"?>
<!DOCTYPE svg PUBLIC "-//W3C//DTD SVG 1.1//EN" "http://www.w3.org/Graphics/SVG/1.1/DTD/svg11.dtd" >
<svg>
<metadata>
Created by FontForge 20090622 at Thu Dec 22 16:48:15 2016
 By ffonts
Joe Prince &#194;&#169; 2012. Admix Designs.
</metadata>
<defs>
<font id="Venera500" horiz-adv-x="997" >
  <font-face 
    font-family="Venera"
    font-weight="500"
    font-stretch="normal"
    units-per-em="1000"
    panose-1="0 0 0 0 0 0 0 0 0 0"
    ascent="750"
    descent="-250"
    x-height="684"
    cap-height="684"
    bbox="-118 -285 1860 943"
    underline-thickness="50"
    underline-position="-50"
    unicode-range="U+0020-U+2212"
  />
<missing-glyph horiz-adv-x="298" 
 />
    <glyph glyph-name=".notdef" horiz-adv-x="298" 
 />
    <glyph glyph-name="A" unicode="A" 
d="M694 551l270 -551h-84l-99 203h-565l-99 -203h-83l269 551c45 93 100 142 196 142s149 -49 195 -142zM746 272l-128 262c-26 54 -59 89 -119 89c-61 0 -94 -35 -120 -89l-128 -262h495z" />
    <glyph glyph-name="B" unicode="B" horiz-adv-x="1010" 
d="M929 509c0 -84 -47 -138 -125 -158c103 -24 143 -94 143 -169c0 -95 -66 -182 -237 -182h-612v684h599c187 0 232 -97 232 -175zM718 317h-545v-246h545c125 0 154 63 154 120c0 58 -39 126 -154 126zM173 385h534c94 0 147 41 147 114c0 72 -45 113 -147 113h-534v-227z
" />
    <glyph glyph-name="C" unicode="C" horiz-adv-x="969" 
d="M922 684v-76h-536c-186 0 -243 -88 -243 -266c0 -179 57 -266 243 -266h536v-76h-536c-229 0 -322 112 -322 342c0 228 91 342 322 342h536z" />
    <glyph glyph-name="D" unicode="D" horiz-adv-x="1038" 
d="M98 0v684h554c231 0 322 -115 322 -342c0 -231 -94 -342 -322 -342h-554zM895 342c0 175 -56 266 -243 266h-477v-532h477c186 0 243 89 243 266z" />
    <glyph glyph-name="E" unicode="E" horiz-adv-x="987" 
d="M923 610h-537c-170 0 -238 -77 -243 -233h763v-70h-763c6 -156 73 -233 243 -233h537v-74h-537c-230 0 -322 113 -322 342c0 228 91 342 322 342h537v-74z" />
    <glyph glyph-name="F" unicode="F" horiz-adv-x="950" 
d="M906 608h-454c-212 0 -285 -52 -285 -232v-39h712v-69h-712v-268h-77v376c0 229 105 308 362 308h454v-76z" />
    <glyph glyph-name="G" unicode="G" horiz-adv-x="1001" 
d="M848 341h78v-341h-540c-230 0 -322 114 -322 343c0 227 91 341 322 341h533v-76h-533c-186 0 -243 -87 -243 -265c0 -180 58 -267 243 -267h462v265z" />
    <glyph glyph-name="H" unicode="H" horiz-adv-x="1017" 
d="M919 0h-78v308h-666v-308h-77v684h77v-307h666v307h78v-684z" />
    <glyph glyph-name="I" unicode="I" horiz-adv-x="274" 
d="M98 684h78v-684h-78v684z" />
    <glyph glyph-name="J" unicode="J" horiz-adv-x="763" 
d="M18 0v76h333c175 0 243 54 243 194v414h77v-414c0 -191 -100 -270 -320 -270h-333z" />
    <glyph glyph-name="K" unicode="K" horiz-adv-x="924" 
d="M912 0h-104l-159 203c-34 43 -97 109 -174 109h-299v-312h-78v684h78v-303h289c79 0 144 62 176 105l149 198h102l-184 -232c-36 -46 -86 -85 -142 -104c59 -19 109 -59 151 -110z" />
    <glyph glyph-name="L" unicode="L" horiz-adv-x="876" 
d="M92 684h78v-414c0 -141 67 -194 243 -194h445v-76h-445c-221 0 -321 79 -321 270v414z" />
    <glyph glyph-name="M" unicode="M" horiz-adv-x="1183" 
d="M561 153l-387 447v-600h-76v684h74c29 0 42 -15 55 -30l365 -423l364 423c13 15 26 30 55 30h74v-684h-76v600l-387 -447h-61z" />
    <glyph glyph-name="N" unicode="N" horiz-adv-x="1073" 
d="M175 606v-606h-77v684h66c164 0 210 -59 406 -321c185 -248 211 -285 317 -285h11v606h77v-684h-66c-157 0 -203 56 -402 316c-196 256 -218 290 -321 290h-11z" />
    <glyph glyph-name="O" unicode="O" horiz-adv-x="1063" 
d="M532 693c300 0 469 -71 469 -351s-169 -351 -469 -351s-470 71 -470 351s170 351 470 351zM532 64c250 0 390 42 390 278s-140 277 -390 277s-391 -41 -391 -277s141 -278 391 -278z" />
    <glyph glyph-name="P" unicode="P" horiz-adv-x="962" 
d="M98 684h579c162 0 246 -97 246 -216c0 -120 -84 -217 -246 -217h-502v-251h-77v684zM175 320h505c114 0 162 76 162 147s-49 148 -162 148h-505v-295z" />
    <glyph glyph-name="Q" unicode="Q" horiz-adv-x="1063" 
d="M876 -161h-101l-65 78c-49 59 -83 74 -178 74c-300 0 -470 71 -470 351s170 351 470 351s469 -71 469 -351c0 -222 -109 -309 -297 -337c31 -14 59 -39 87 -71zM532 64c250 0 390 42 390 278s-140 277 -390 277s-391 -41 -391 -277s141 -278 391 -278z" />
    <glyph glyph-name="R" unicode="R" horiz-adv-x="995" 
d="M98 0v684h586c166 0 245 -88 245 -205c0 -99 -58 -166 -152 -187c90 -24 134 -86 134 -165v-127h-80v128c0 73 -49 130 -153 130h-502v-258h-78zM176 327h514c120 0 160 76 160 144c0 67 -38 144 -160 144h-514v-288z" />
    <glyph glyph-name="S" unicode="S" horiz-adv-x="946" 
d="M53 70h600c114 0 167 40 167 112s-54 108 -182 119l-339 28c-152 12 -232 67 -232 180c0 123 97 175 228 175h556v-70h-562c-91 0 -143 -32 -143 -103c0 -68 47 -100 173 -111l330 -28c162 -14 250 -65 250 -187c0 -114 -77 -185 -250 -185h-596v70z" />
    <glyph glyph-name="T" unicode="T" horiz-adv-x="841" 
d="M459 0h-77v614h-366v70h809v-70h-366v-614z" />
    <glyph glyph-name="U" unicode="U" horiz-adv-x="1004" 
d="M89 323v361h78v-361c0 -196 77 -257 335 -257c260 0 336 61 336 257v361h77v-361c0 -241 -109 -332 -413 -332c-297 0 -413 86 -413 332z" />
    <glyph glyph-name="V" unicode="V" horiz-adv-x="986" 
d="M868 684h85l-276 -571c-37 -77 -89 -122 -183 -122c-96 0 -146 43 -184 122l-277 571h86l268 -549c23 -48 54 -70 107 -70s82 22 106 70z" />
    <glyph glyph-name="W" unicode="W" horiz-adv-x="1428" 
d="M1312 684h82l-248 -563c-45 -102 -111 -130 -183 -130c-82 0 -142 35 -183 119l-66 134l-66 -134c-41 -84 -101 -119 -183 -119c-72 0 -138 28 -183 130l-248 563h82l236 -535c30 -69 64 -85 113 -85c57 0 88 22 116 78l92 187l-172 355h78l135 -278l135 278h78
l-172 -355l92 -187c27 -56 59 -78 116 -78c48 0 82 16 113 85z" />
    <glyph glyph-name="X" unicode="X" horiz-adv-x="858" 
d="M845 0h-106l-277 273c-11 11 -22 23 -33 36c-11 -13 -22 -26 -32 -36l-278 -273h-105l355 350l-344 334h108l263 -256c12 -11 22 -22 33 -36c11 14 23 25 34 36l261 256h108l-343 -334z" />
    <glyph glyph-name="Y" unicode="Y" horiz-adv-x="903" 
d="M9 684h113l243 -263c30 -32 68 -72 86 -118c18 46 57 85 87 118l243 263h113l-312 -325c-34 -35 -92 -95 -92 -149v-210h-77v210c0 54 -59 114 -92 149z" />
    <glyph glyph-name="Z" unicode="Z" horiz-adv-x="898" 
d="M415 367c186 63 337 115 337 229v18h-693v70h774v-72c0 -171 -188 -242 -371 -305c-165 -57 -322 -106 -322 -219v-19h709v-69h-792v71c0 169 180 235 358 296z" />
    <glyph glyph-name="zero" unicode="0" horiz-adv-x="1024" 
d="M512 693c305 0 449 -98 449 -351c0 -254 -144 -351 -449 -351c-306 0 -449 97 -449 351c0 253 143 351 449 351zM512 64c257 0 370 67 370 278s-113 277 -370 277s-370 -66 -370 -277s113 -278 370 -278z" />
    <glyph glyph-name="one" unicode="1" horiz-adv-x="437" 
d="M339 684v-684h-77v616h-231v68h308z" />
    <glyph glyph-name="two" unicode="2" horiz-adv-x="911" 
d="M850 70v-70h-790v106c0 157 221 202 420 246c146 33 279 65 279 162c0 55 -43 99 -137 99h-548v71h547c133 0 220 -63 220 -168c0 -138 -150 -188 -335 -231c-174 -39 -359 -69 -359 -173v-42h703z" />
    <glyph glyph-name="three" unicode="3" horiz-adv-x="913" 
d="M753 499c0 72 -51 114 -149 114h-528v71h519c187 0 234 -96 234 -175c0 -86 -49 -137 -128 -158c96 -22 147 -86 147 -170c0 -106 -82 -181 -240 -181h-539v70h546c112 0 156 60 156 120c0 53 -34 127 -156 127h-526v69h515c96 0 149 39 149 113z" />
    <glyph glyph-name="four" unicode="4" horiz-adv-x="979" 
d="M818 222v-222h-77v220h-489c-170 0 -209 95 -209 162c0 25 5 45 12 66l82 236h80l-82 -241c-6 -15 -11 -35 -11 -56c0 -35 16 -95 135 -95h482v392h77v-391h120v-71h-120z" />
    <glyph glyph-name="five" unicode="5" horiz-adv-x="926" 
d="M621 0h-560v71h564c115 0 170 50 170 124c0 73 -53 121 -168 121h-523l-23 24l27 344h715v-72h-646l-17 -228h465c167 0 250 -71 250 -189c0 -115 -81 -195 -254 -195z" />
    <glyph glyph-name="six" unicode="6" horiz-adv-x="965" 
d="M681 0h-361c-173 0 -234 89 -234 190v304c0 113 74 190 234 190h529v-70h-533c-134 0 -150 -82 -150 -120v-114h515c172 0 237 -89 237 -190c0 -110 -76 -190 -237 -190zM684 312h-518v-122c0 -59 35 -122 150 -122h368c116 0 153 63 153 122c0 58 -37 122 -153 122z" />
    <glyph glyph-name="seven" unicode="7" horiz-adv-x="850" 
d="M399 93v-93h-84v94c0 243 412 287 412 478v43h-696v69h782v-101c0 -256 -414 -283 -414 -490z" />
    <glyph glyph-name="eight" unicode="8" horiz-adv-x="941" 
d="M84 507c0 79 47 177 236 177h301c189 0 236 -98 236 -177c0 -87 -51 -139 -131 -159c97 -21 150 -82 150 -168c0 -108 -83 -180 -242 -180h-327c-161 0 -242 73 -242 180c0 86 53 146 150 168c-81 20 -131 72 -131 159zM301 67h339c118 0 158 64 158 123
c0 58 -40 125 -158 125h-339c-118 0 -158 -67 -158 -125c0 -59 40 -123 158 -123zM629 619h-317c-98 0 -151 -48 -151 -120c0 -74 56 -119 151 -119h317c95 0 151 45 151 119c0 72 -53 120 -151 120z" />
    <glyph glyph-name="nine" unicode="9" horiz-adv-x="971" 
d="M650 0h-564v69h568c114 0 151 62 151 121v105h-511c-161 0 -238 81 -238 195c0 113 76 194 238 194h356c163 0 235 -78 235 -190v-304c0 -111 -74 -190 -235 -190zM654 616h-363c-138 0 -155 -87 -155 -126s17 -127 155 -127h514v131c0 38 -17 122 -151 122z" />
    <glyph glyph-name="dollar" unicode="$" horiz-adv-x="941" 
d="M466 798h64v-114h322v-68h-563c-93 0 -146 -32 -146 -104c0 -70 48 -102 176 -113l331 -28c158 -13 250 -64 250 -188c0 -112 -77 -183 -250 -183h-155v-146h-64v146h-378v68h601c115 0 169 40 169 113c0 74 -55 109 -185 120l-339 28c-152 12 -232 71 -232 182
c0 121 96 173 228 173h171v114z" />
    <glyph glyph-name="period" unicode="." horiz-adv-x="257" 
d="M172 130v-130h-87v130h87z" />
    <glyph glyph-name="colon" unicode=":" horiz-adv-x="256" 
d="M171 135v-135h-86v135h86zM171 626v-135h-86v135h86z" />
    <glyph glyph-name="semicolon" unicode=";" horiz-adv-x="314" 
d="M217 133l-85 -240h-66l65 240h86zM207 626v-135h-86v135h86z" />
    <glyph glyph-name="comma" unicode="," horiz-adv-x="278" 
d="M196 133l-85 -240h-66l65 240h86z" />
    <glyph glyph-name="exclam" unicode="!" horiz-adv-x="274" 
d="M177 684l-8 -488h-64l-8 488h80zM180 120v-120h-86v120h86z" />
    <glyph glyph-name="quotedbl" unicode="&#x22;" horiz-adv-x="456" 
d="M161 684v-280h-76v280h76zM371 684v-280h-75v280h75z" />
    <glyph glyph-name="quotesingle" unicode="'" horiz-adv-x="246" 
d="M161 684v-280h-76v280h76z" />
    <glyph glyph-name="numbersign" unicode="#" horiz-adv-x="801" 
d="M101 432v60h145l28 146h60l-28 -146h248l28 146h60l-28 -146h133v-60h-144l-37 -192h135v-60h-146l-28 -148h-60l28 148h-249l-28 -148h-60l28 148h-132v60h143l37 192h-133zM294 432l-37 -192h249l37 192h-249z" />
    <glyph glyph-name="slash" unicode="/" horiz-adv-x="530" 
d="M100 -105h-70l400 874h70z" />
    <glyph glyph-name="backslash" unicode="\" horiz-adv-x="531" 
d="M501 -105h-70l-401 874h70z" />
    <glyph glyph-name="percent" unicode="%" horiz-adv-x="1042" 
d="M800 338c141 0 200 -74 200 -174s-59 -174 -200 -174s-201 74 -201 174s60 174 201 174zM800 40c115 0 137 67 137 124s-22 124 -137 124s-138 -67 -138 -124s23 -124 138 -124zM442 519c0 -99 -59 -174 -200 -174s-201 75 -201 174c0 100 60 175 201 175
s200 -75 200 -175zM104 519c0 -56 23 -123 138 -123s137 67 137 123c0 57 -22 124 -137 124s-138 -67 -138 -124zM806 684h82l-652 -684h-82z" />
    <glyph glyph-name="ampersand" unicode="&#x26;" horiz-adv-x="966" 
d="M604 0h-300c-160 0 -239 74 -239 182c0 59 30 144 146 169c-80 19 -128 70 -128 158c0 79 46 175 234 175h474v-68h-480c-98 0 -149 -45 -149 -117c0 -74 53 -116 149 -116h614v-65h-90v-133c0 -107 -74 -185 -231 -185zM762 318h-462c-115 0 -155 -69 -155 -127
c0 -59 40 -124 155 -124h306c134 0 156 84 156 123v128z" />
    <glyph glyph-name="a" unicode="a" 
d="M694 551l270 -551h-84l-99 203h-565l-99 -203h-83l269 551c45 93 100 142 196 142s149 -49 195 -142zM746 272l-128 262c-26 54 -59 89 -119 89c-61 0 -94 -35 -120 -89l-128 -262h495z" />
    <glyph glyph-name="b" unicode="b" horiz-adv-x="1010" 
d="M929 509c0 -84 -47 -138 -125 -158c103 -24 143 -94 143 -169c0 -95 -66 -182 -237 -182h-612v684h599c187 0 232 -97 232 -175zM718 317h-545v-246h545c125 0 154 63 154 120c0 58 -39 126 -154 126zM173 385h534c94 0 147 41 147 114c0 72 -45 113 -147 113h-534v-227z
" />
    <glyph glyph-name="c" unicode="c" horiz-adv-x="969" 
d="M922 684v-76h-536c-186 0 -243 -88 -243 -266c0 -179 57 -266 243 -266h536v-76h-536c-229 0 -322 112 -322 342c0 228 91 342 322 342h536z" />
    <glyph glyph-name="d" unicode="d" horiz-adv-x="1038" 
d="M98 0v684h554c231 0 322 -115 322 -342c0 -231 -94 -342 -322 -342h-554zM895 342c0 175 -56 266 -243 266h-477v-532h477c186 0 243 89 243 266z" />
    <glyph glyph-name="e" unicode="e" horiz-adv-x="987" 
d="M923 610h-537c-170 0 -238 -77 -243 -233h763v-70h-763c6 -156 73 -233 243 -233h537v-74h-537c-230 0 -322 113 -322 342c0 228 91 342 322 342h537v-74z" />
    <glyph glyph-name="f" unicode="f" horiz-adv-x="950" 
d="M906 608h-454c-212 0 -285 -52 -285 -232v-39h712v-69h-712v-268h-77v376c0 229 105 308 362 308h454v-76z" />
    <glyph glyph-name="g" unicode="g" horiz-adv-x="1001" 
d="M848 341h78v-341h-540c-230 0 -322 114 -322 343c0 227 91 341 322 341h533v-76h-533c-186 0 -243 -87 -243 -265c0 -180 58 -267 243 -267h462v265z" />
    <glyph glyph-name="h" unicode="h" horiz-adv-x="1017" 
d="M919 0h-78v308h-666v-308h-77v684h77v-307h666v307h78v-684z" />
    <glyph glyph-name="i" unicode="i" horiz-adv-x="274" 
d="M98 684h78v-684h-78v684z" />
    <glyph glyph-name="j" unicode="j" horiz-adv-x="763" 
d="M18 0v76h333c175 0 243 54 243 194v414h77v-414c0 -191 -100 -270 -320 -270h-333z" />
    <glyph glyph-name="k" unicode="k" horiz-adv-x="924" 
d="M912 0h-104l-159 203c-34 43 -97 109 -174 109h-299v-312h-78v684h78v-303h289c79 0 144 62 176 105l149 198h102l-184 -232c-36 -46 -86 -85 -142 -104c59 -19 109 -59 151 -110z" />
    <glyph glyph-name="l" unicode="l" horiz-adv-x="876" 
d="M92 684h78v-414c0 -141 67 -194 243 -194h445v-76h-445c-221 0 -321 79 -321 270v414z" />
    <glyph glyph-name="m" unicode="m" horiz-adv-x="1183" 
d="M561 153l-387 447v-600h-76v684h74c29 0 42 -15 55 -30l365 -423l364 423c13 15 26 30 55 30h74v-684h-76v600l-387 -447h-61z" />
    <glyph glyph-name="n" unicode="n" horiz-adv-x="1073" 
d="M175 606v-606h-77v684h66c164 0 210 -59 406 -321c185 -248 211 -285 317 -285h11v606h77v-684h-66c-157 0 -203 56 -402 316c-196 256 -218 290 -321 290h-11z" />
    <glyph glyph-name="o" unicode="o" horiz-adv-x="1063" 
d="M532 693c300 0 469 -71 469 -351s-169 -351 -469 -351s-470 71 -470 351s170 351 470 351zM532 64c250 0 390 42 390 278s-140 277 -390 277s-391 -41 -391 -277s141 -278 391 -278z" />
    <glyph glyph-name="p" unicode="p" horiz-adv-x="962" 
d="M98 684h579c162 0 246 -97 246 -216c0 -120 -84 -217 -246 -217h-502v-251h-77v684zM175 320h505c114 0 162 76 162 147s-49 148 -162 148h-505v-295z" />
    <glyph glyph-name="q" unicode="q" horiz-adv-x="1063" 
d="M876 -161h-101l-65 78c-49 59 -83 74 -178 74c-300 0 -470 71 -470 351s170 351 470 351s469 -71 469 -351c0 -222 -109 -309 -297 -337c31 -14 59 -39 87 -71zM532 64c250 0 390 42 390 278s-140 277 -390 277s-391 -41 -391 -277s141 -278 391 -278z" />
    <glyph glyph-name="r" unicode="r" horiz-adv-x="995" 
d="M98 0v684h586c166 0 245 -88 245 -205c0 -99 -58 -166 -152 -187c90 -24 134 -86 134 -165v-127h-80v128c0 73 -49 130 -153 130h-502v-258h-78zM176 327h514c120 0 160 76 160 144c0 67 -38 144 -160 144h-514v-288z" />
    <glyph glyph-name="s" unicode="s" horiz-adv-x="946" 
d="M53 70h600c114 0 167 40 167 112s-54 108 -182 119l-339 28c-152 12 -232 67 -232 180c0 123 97 175 228 175h556v-70h-562c-91 0 -143 -32 -143 -103c0 -68 47 -100 173 -111l330 -28c162 -14 250 -65 250 -187c0 -114 -77 -185 -250 -185h-596v70z" />
    <glyph glyph-name="t" unicode="t" horiz-adv-x="841" 
d="M459 0h-77v614h-366v70h809v-70h-366v-614z" />
    <glyph glyph-name="u" unicode="u" horiz-adv-x="1004" 
d="M89 323v361h78v-361c0 -196 77 -257 335 -257c260 0 336 61 336 257v361h77v-361c0 -241 -109 -332 -413 -332c-297 0 -413 86 -413 332z" />
    <glyph glyph-name="v" unicode="v" horiz-adv-x="986" 
d="M868 684h85l-276 -571c-37 -77 -89 -122 -183 -122c-96 0 -146 43 -184 122l-277 571h86l268 -549c23 -48 54 -70 107 -70s82 22 106 70z" />
    <glyph glyph-name="w" unicode="w" horiz-adv-x="1428" 
d="M1312 684h82l-248 -563c-45 -102 -111 -130 -183 -130c-82 0 -142 35 -183 119l-66 134l-66 -134c-41 -84 -101 -119 -183 -119c-72 0 -138 28 -183 130l-248 563h82l236 -535c30 -69 64 -85 113 -85c57 0 88 22 116 78l92 187l-172 355h78l135 -278l135 278h78
l-172 -355l92 -187c27 -56 59 -78 116 -78c48 0 82 16 113 85z" />
    <glyph glyph-name="x" unicode="x" horiz-adv-x="858" 
d="M845 0h-106l-277 273c-11 11 -22 23 -33 36c-11 -13 -22 -26 -32 -36l-278 -273h-105l355 350l-344 334h108l263 -256c12 -11 22 -22 33 -36c11 14 23 25 34 36l261 256h108l-343 -334z" />
    <glyph glyph-name="y" unicode="y" horiz-adv-x="903" 
d="M9 684h113l243 -263c30 -32 68 -72 86 -118c18 46 57 85 87 118l243 263h113l-312 -325c-34 -35 -92 -95 -92 -149v-210h-77v210c0 54 -59 114 -92 149z" />
    <glyph glyph-name="z" unicode="z" horiz-adv-x="898" 
d="M415 367c186 63 337 115 337 229v18h-693v70h774v-72c0 -171 -188 -242 -371 -305c-165 -57 -322 -106 -322 -219v-19h709v-69h-792v71c0 169 180 235 358 296z" />
    <glyph glyph-name="parenleft" unicode="(" horiz-adv-x="291" 
d="M132 332c0 -151 38 -311 110 -437h-71c-72 126 -110 286 -110 437s38 311 110 437h71c-72 -126 -110 -286 -110 -437z" />
    <glyph glyph-name="parenright" unicode=")" horiz-adv-x="291" 
d="M160 332c0 151 -39 311 -111 437h71c72 -126 111 -286 111 -437s-39 -311 -111 -437h-71c72 126 111 286 111 437z" />
    <glyph glyph-name="hyphen" unicode="-" horiz-adv-x="554" 
d="M469 380v-68h-384v68h384z" />
    <glyph glyph-name="asterisk" unicode="*" horiz-adv-x="538" 
d="M285 552h-32l-14 163h60zM228 534l-10 -30l-159 37l19 57zM121 351l107 124l26 -19l-85 -140zM284 456l26 19l107 -124l-48 -35zM479 541l-159 -37l-10 30l150 64z" />
    <glyph glyph-name="plus" unicode="+" horiz-adv-x="719" 
d="M668 377v-61h-278v-229h-61v229h-278v61h278v229h61v-229h278z" />
    <glyph glyph-name="equal" unicode="=" horiz-adv-x="787" 
d="M702 230v-65h-617v65h617zM702 529v-65h-617v65h617z" />
    <glyph glyph-name="less" unicode="&#x3c;" horiz-adv-x="573" 
d="M134 346l356 -172v-71l-448 227v33l448 227v-72z" />
    <glyph glyph-name="greater" unicode="&#x3e;" horiz-adv-x="573" 
d="M83 174l356 172l-356 172v72l448 -227v-33l-448 -227v71z" />
    <glyph glyph-name="question" unicode="?" horiz-adv-x="690" 
d="M319 242v-51h-73v55c0 48 12 91 70 115l181 72c50 20 74 52 74 93c0 37 -20 89 -122 89h-412v69h407c128 0 204 -55 204 -155c0 -85 -55 -131 -118 -156l-169 -68c-33 -13 -42 -32 -42 -63zM325 120v-120h-85v120h85z" />
    <glyph glyph-name="bracketleft" unicode="[" horiz-adv-x="419" 
d="M94 -105v874h276v-61h-208v-752h208v-61h-276z" />
    <glyph glyph-name="bracketright" unicode="]" horiz-adv-x="419" 
d="M49 769h276v-874h-276v61h208v752h-208v61z" />
    <glyph glyph-name="bar" unicode="|" horiz-adv-x="256" 
d="M94 769h68v-874h-68v874z" />
    <glyph glyph-name="braceleft" unicode="{" horiz-adv-x="429" 
d="M149 496v178c0 57 39 95 95 95h136v-62h-117c-28 0 -46 -17 -46 -45v-178c0 -72 -38 -124 -94 -152c56 -29 94 -81 94 -153v-177c0 -28 18 -46 46 -46h117v-61h-136c-56 0 -95 38 -95 95v178c0 74 -49 123 -121 137v53c72 14 121 64 121 138z" />
    <glyph glyph-name="braceright" unicode="}" horiz-adv-x="429" 
d="M280 674v-178c0 -74 49 -124 121 -138v-53c-72 -14 -121 -63 -121 -137v-178c0 -57 -39 -95 -95 -95h-136v61h117c28 0 46 18 46 46v177c0 72 37 124 94 153c-57 28 -94 80 -94 152v178c0 28 -18 45 -46 45h-117v62h136c56 0 95 -38 95 -95z" />
    <glyph glyph-name="asciicircum" unicode="^" horiz-adv-x="657" 
d="M326 635l-193 -266h-77l254 357h32l253 -357h-77z" />
    <glyph glyph-name="underscore" unicode="_" horiz-adv-x="876" 
d="M795 -78v-63h-713v63h713z" />
    <glyph glyph-name="at" unicode="@" horiz-adv-x="1053" 
d="M878 -25v-60h-390c-271 0 -423 107 -423 334v155c0 224 148 334 423 334h82c270 0 423 -106 423 -334v-252h-493c-124 0 -211 27 -211 145v58c0 117 86 144 211 144h57c122 0 212 -25 212 -144v-145h162v197c0 187 -131 271 -361 271h-82c-231 0 -361 -85 -361 -271v-161
c0 -187 130 -271 361 -271h390zM562 441h-67c-85 0 -142 -14 -142 -86v-58c0 -74 58 -87 142 -87h210v145c0 77 -65 86 -143 86z" />
    <glyph glyph-name="asciitilde" unicode="~" horiz-adv-x="800" 
d="M549 247c-128 0 -191 125 -297 125c-84 0 -105 -82 -111 -115h-64c12 74 55 185 174 185c126 0 190 -126 297 -126c91 0 107 92 111 115h64c-10 -64 -48 -184 -174 -184z" />
    <glyph glyph-name="exclamdown" unicode="&#xa1;" horiz-adv-x="274" 
d="M169 487l8 -487h-80l8 487h64zM180 684v-121h-86v121h86z" />
    <glyph glyph-name="cent" unicode="&#xa2;" horiz-adv-x="742" 
d="M488 67v-152h-63v152h-122c-187 0 -257 86 -257 265c0 183 73 267 257 267h122v127h63v-127h188v-70h-373c-143 0 -184 -63 -184 -197s41 -195 184 -195h373v-70h-188z" />
    <glyph glyph-name="sterling" unicode="&#xa3;" horiz-adv-x="895" 
d="M852 68v-68h-802v56l157 11v211h-140v64h140v65c0 197 92 277 316 277h276v-71h-276c-178 0 -242 -58 -242 -206v-65h343v-64h-343v-210h571z" />
    <glyph glyph-name="currency" unicode="&#xa4;" horiz-adv-x="871" 
d="M218 138l-107 -108l-48 48l108 109c-31 40 -47 91 -47 154c0 62 16 113 47 153l-108 110l48 48l108 -110c52 40 126 61 217 61c90 0 164 -21 216 -61l109 110l47 -48l-108 -110c31 -40 47 -92 47 -153s-16 -113 -47 -154l108 -109l-47 -48l-108 109
c-52 -40 -125 -61 -217 -61s-166 20 -218 60zM436 540c-150 0 -239 -69 -239 -199c0 -132 89 -200 239 -200c149 0 238 68 238 200c0 130 -89 199 -238 199z" />
    <glyph glyph-name="yen" unicode="&#xa5;" horiz-adv-x="883" 
d="M763 187v-56h-285v-131h-72v131h-285v56h285v33c0 40 -25 79 -52 111h-233v56h185l-32 36l-240 261h105l224 -253c30 -33 65 -77 79 -118c13 41 50 86 78 118l224 253h105l-240 -261l-33 -36h186v-56h-233c-27 -32 -51 -71 -51 -111v-33h285z" />
    <glyph glyph-name="brokenbar" unicode="&#xa6;" horiz-adv-x="260" 
d="M96 769h68v-365h-68v365zM96 288h68v-393h-68v393z" />
    <glyph glyph-name="section" unicode="&#xa7;" horiz-adv-x="823" 
d="M254 684h484v-60h-490c-59 0 -90 -26 -90 -70s28 -67 95 -71l344 -22c113 -7 170 -54 170 -130c0 -49 -23 -85 -65 -111c22 -21 33 -50 33 -86c0 -90 -64 -134 -162 -134h-496v61h502c60 0 90 28 90 71s-29 63 -95 68l-344 23c-113 7 -170 52 -170 129c0 49 24 85 66 111
c-23 21 -34 51 -34 88c0 90 64 133 162 133zM127 365c0 -44 31 -74 107 -79l350 -23c28 -2 52 -8 70 -16c26 15 46 36 46 72c0 45 -31 75 -107 80l-350 23c-29 2 -52 7 -70 15c-27 -16 -46 -38 -46 -72z" />
    <glyph glyph-name="copyright" unicode="&#xa9;" horiz-adv-x="1094" 
d="M736 213v-47h-267c-121 0 -169 55 -169 176c0 120 47 176 169 176h267v-47h-267c-92 0 -120 -40 -120 -129s28 -129 120 -129h267zM547 719c332 0 486 -114 486 -377s-154 -377 -486 -377s-486 114 -486 377s154 377 486 377zM547 12c294 0 432 84 432 330
c0 245 -138 330 -432 330s-432 -85 -432 -330c0 -246 138 -330 432 -330z" />
    <glyph glyph-name="registered" unicode="&#xae;" horiz-adv-x="1094" 
d="M547 719c332 0 486 -114 486 -377s-154 -377 -486 -377s-486 114 -486 377s154 377 486 377zM547 12c294 0 432 84 432 330c0 245 -138 330 -432 330s-432 -85 -432 -330c0 -246 138 -330 432 -330zM343 518h297c79 0 128 -42 128 -107c0 -47 -26 -81 -70 -94
c40 -14 61 -43 61 -83v-66h-49v67c0 34 -22 60 -74 60h-245v-127h-48v350zM391 339h249c61 0 80 37 80 68c0 30 -18 67 -80 67h-249v-135z" />
    <glyph glyph-name="guillemotleft" unicode="&#xab;" horiz-adv-x="879" 
d="M161 346l279 -150v-79l-403 229l403 230v-80zM513 346l279 -150v-79l-403 229l403 230v-80z" />
    <glyph glyph-name="guillemotright" unicode="&#xbb;" horiz-adv-x="879" 
d="M439 196l279 150l-279 150v80l403 -230l-403 -229v79zM87 196l279 150l-279 150v80l403 -230l-403 -229v79z" />
    <glyph glyph-name="guilsinglleft" unicode="&#x2039;" horiz-adv-x="527" 
d="M161 346l279 -150v-79l-403 229l403 230v-80z" />
    <glyph glyph-name="guilsinglright" unicode="&#x203a;" horiz-adv-x="527" 
d="M87 196l279 150l-279 150v80l403 -230l-403 -229v79z" />
    <glyph glyph-name="OE" unicode="&#x152;" horiz-adv-x="1805" 
d="M1743 610h-434c-201 0 -303 -58 -316 -233h726v-70h-726c13 -176 115 -234 316 -234h434v-73h-434c-197 0 -311 57 -356 189c-49 -159 -198 -198 -425 -198c-300 0 -466 71 -466 351s166 351 466 351c227 0 376 -41 425 -199c45 132 159 190 356 190h434v-74zM528 64
c250 0 387 42 387 278s-137 277 -387 277s-387 -41 -387 -277s137 -278 387 -278z" />
    <glyph glyph-name="trademark" unicode="&#x2122;" horiz-adv-x="1056" 
d="M279 641v-287h-47v287h-167v43h381v-43h-167zM968 684v-330h-46v270l-165 -196h-32l-164 196v-270h-44v330h52l173 -207l173 207h53z" />
    <glyph glyph-name="perthousand" unicode="&#x2030;" horiz-adv-x="1437" 
d="M742 338c141 0 200 -74 200 -174s-59 -174 -200 -174s-201 74 -201 174s60 174 201 174zM742 40c115 0 137 67 137 124s-22 124 -137 124s-138 -67 -138 -124s23 -124 138 -124zM444 519c0 -99 -59 -174 -200 -174s-201 75 -201 174c0 100 60 175 201 175
s200 -75 200 -175zM106 519c0 -56 23 -123 138 -123s137 67 137 123c0 57 -22 124 -137 124s-138 -67 -138 -124zM778 684h82l-652 -684h-82zM1197 338c141 0 201 -74 201 -174s-60 -174 -201 -174s-200 74 -200 174s59 174 200 174zM1197 40c115 0 138 67 138 124
s-23 124 -138 124s-137 -67 -137 -124s22 -124 137 -124z" />
    <glyph glyph-name="Euro" unicode="&#x20ac;" horiz-adv-x="1022" 
d="M775 455l-18 -46h-500c-2 -21 -3 -43 -3 -67c0 -25 1 -47 3 -67h450l-18 -47h-424c23 -108 92 -156 237 -156h459v-72h-459c-196 0 -289 72 -316 228h-132l18 47h108c-2 20 -3 42 -3 67c0 23 1 46 3 67h-126l18 46h114c28 158 123 229 316 229h459v-72h-459
c-145 0 -215 -49 -237 -157h510z" />
    <glyph glyph-name="quotesinglbase" unicode="&#x201a;" horiz-adv-x="278" 
d="M196 133l-85 -240h-66l65 240h86z" />
    <glyph glyph-name="florin" unicode="&#x192;" horiz-adv-x="676" 
d="M-118 -172v72c145 0 210 43 210 174v314c0 225 114 296 363 296h176v-74h-176c-212 0 -287 -52 -287 -222v-53h435v-67h-435v-193c0 -186 -101 -247 -286 -247z" />
    <glyph glyph-name="quotedblbase" unicode="&#x201e;" horiz-adv-x="472" 
d="M390 133l-85 -240h-66l65 240h86zM196 133l-85 -240h-66l65 240h86z" />
    <glyph glyph-name="dagger" unicode="&#x2020;" horiz-adv-x="542" 
d="M38 431v60h200v193h65v-193h201v-60h-201v-495h-65v495h-200z" />
    <glyph glyph-name="daggerdbl" unicode="&#x2021;" horiz-adv-x="596" 
d="M65 431v60h200v193h65v-193h201v-60h-201v-243h201v-60h-201v-192h-65v192h-200v60h200v243h-200z" />
    <glyph glyph-name="ellipsis" unicode="&#x2026;" horiz-adv-x="1131" 
d="M172 130v-130h-87v130h87zM609 130v-130h-87v130h87zM1046 130v-130h-87v130h87z" />
    <glyph glyph-name="bullet" unicode="&#x2022;" horiz-adv-x="403" 
d="M96 342c0 58 48 105 106 105s105 -47 105 -105s-47 -106 -105 -106s-106 48 -106 106z" />
    <glyph glyph-name="endash" unicode="&#x2013;" horiz-adv-x="851" 
d="M766 380v-68h-681v68h681z" />
    <glyph glyph-name="emdash" unicode="&#x2014;" horiz-adv-x="1274" 
d="M1189 380v-68h-1104v68h1104z" />
    <glyph glyph-name="oe" unicode="&#x153;" horiz-adv-x="1805" 
d="M1743 610h-434c-201 0 -303 -58 -316 -233h726v-70h-726c13 -176 115 -234 316 -234h434v-73h-434c-197 0 -312 57 -356 189c-49 -157 -198 -196 -425 -196c-300 0 -466 69 -466 349s166 348 466 348c227 0 376 -39 425 -196c44 132 159 190 356 190h434v-74zM528 67
c250 0 387 39 387 275s-137 275 -387 275s-387 -39 -387 -275s137 -275 387 -275z" />
    <glyph glyph-name="questiondown" unicode="&#xbf;" horiz-adv-x="691" 
d="M371 442v50h73v-55c0 -49 -11 -90 -70 -114l-180 -73c-51 -21 -74 -51 -74 -93c0 -36 19 -88 121 -88h413v-69h-407c-129 0 -204 55 -204 155c0 84 54 130 118 156l169 68c32 13 41 32 41 63zM366 563v121h84v-121h-84z" />
    <glyph glyph-name="plusminus" unicode="&#xb1;" horiz-adv-x="767" 
d="M692 414v-61h-278v-204h-61v204h-278v61h278v204h61v-204h278zM692 61v-61h-617v61h617z" />
    <glyph glyph-name="degree" unicode="&#xb0;" horiz-adv-x="472" 
d="M236 370c-94 0 -171 76 -171 171c0 94 77 171 171 171c95 0 171 -77 171 -171c0 -95 -76 -171 -171 -171zM236 660c-66 0 -119 -53 -119 -119s53 -120 119 -120s120 54 120 120s-54 119 -120 119z" />
    <glyph glyph-name="periodcentered" unicode="&#xb7;" horiz-adv-x="257" 
d="M172 431v-131h-87v131h87z" />
    <glyph glyph-name="uni00AD" unicode="&#xad;" horiz-adv-x="554" 
d="M469 380v-68h-384v68h384z" />
    <glyph glyph-name="minus" unicode="&#x2212;" horiz-adv-x="787" 
d="M702 379v-66h-617v66h617z" />
    <glyph glyph-name="quoteright" unicode="&#x2019;" horiz-adv-x="246" 
d="M161 684v-280h-76v280h76z" />
    <glyph glyph-name="quoteleft" unicode="&#x2018;" horiz-adv-x="246" 
d="M161 684v-280h-76v280h76z" />
    <glyph glyph-name="quotedblright" unicode="&#x201d;" horiz-adv-x="456" 
d="M161 684v-280h-76v280h76zM371 684v-280h-75v280h75z" />
    <glyph glyph-name="quotedblleft" unicode="&#x201c;" horiz-adv-x="456" 
d="M161 684v-280h-76v280h76zM371 684v-280h-75v280h75z" />
    <glyph glyph-name="paragraph" unicode="&#xb6;" horiz-adv-x="868" 
d="M770 684v-684h-74v618h-118v-618h-74v246h-202c-174 0 -260 94 -260 219c0 126 87 219 260 219h468zM504 312v306h-206c-119 0 -179 -70 -179 -153c0 -84 60 -153 179 -153h206z" />
    <glyph glyph-name="acute" unicode="&#xb4;" horiz-adv-x="545" 
d="M148 751l135 181h90l-155 -181h-70z" />
    <glyph glyph-name="circumflex" unicode="&#x2c6;" horiz-adv-x="580" 
d="M90 751l161 176h88l161 -176h-75l-130 128l-130 -128h-75z" />
    <glyph glyph-name="dieresis" unicode="&#xa8;" horiz-adv-x="613" 
d="M219 893v-129h-78v129h78zM473 893v-129h-77v129h77z" />
    <glyph glyph-name="tilde" unicode="&#x2dc;" horiz-adv-x="612" 
d="M417 809c61 0 75 62 80 93h53c-5 -43 -31 -158 -132 -158c-94 0 -139 99 -216 99c-61 0 -76 -62 -81 -93h-53c5 44 32 158 133 158c94 0 139 -99 216 -99z" />
    <glyph glyph-name="cedilla" unicode="&#xb8;" horiz-adv-x="444" 
d="M77 -228h131c59 0 92 17 92 61c0 29 -15 58 -89 58h-94l40 134h64l-29 -82h34c94 0 144 -46 144 -113c0 -83 -78 -115 -165 -115h-142z" />
    <glyph glyph-name="grave" unicode="`" horiz-adv-x="500" 
d="M228 932l135 -181h-70l-155 181h90z" />
    <glyph glyph-name="Agrave" unicode="&#xc0;" 
d="M694 551l270 -551h-84l-99 203h-565l-99 -203h-83l269 551c45 93 100 142 196 142s150 -49 195 -142zM746 272l-128 262c-26 54 -59 89 -119 89c-61 0 -94 -35 -120 -89l-128 -262h495zM426 932l135 -181h-70l-155 181h90z" />
    <glyph glyph-name="Aacute" unicode="&#xc1;" 
d="M694 551l270 -551h-84l-99 203h-565l-99 -203h-83l269 551c45 93 100 142 196 142s150 -49 195 -142zM746 272l-128 262c-26 54 -59 89 -119 89c-61 0 -94 -35 -120 -89l-128 -262h495zM421 751l135 181h90l-155 -181h-70z" />
    <glyph glyph-name="Acircumflex" unicode="&#xc2;" 
d="M694 551l270 -551h-84l-99 203h-565l-99 -203h-83l269 551c45 93 100 142 196 142s150 -49 195 -142zM746 272l-128 262c-26 54 -59 89 -119 89c-61 0 -94 -35 -120 -89l-128 -262h495zM294 751l161 176h88l161 -176h-75l-130 128l-130 -128h-75z" />
    <glyph glyph-name="Atilde" unicode="&#xc3;" 
d="M694 551l270 -551h-84l-99 203h-565l-99 -203h-83l269 551c45 93 100 142 196 142s150 -49 195 -142zM746 272l-128 262c-26 54 -59 89 -119 89c-61 0 -94 -35 -120 -89l-128 -262h495zM607 809c61 0 75 62 80 93h53c-5 -43 -31 -158 -132 -158c-94 0 -139 99 -216 99
c-61 0 -76 -62 -81 -93h-53c5 44 32 158 133 158c94 0 139 -99 216 -99z" />
    <glyph glyph-name="Adieresis" unicode="&#xc4;" 
d="M694 551l270 -551h-84l-99 203h-565l-99 -203h-83l269 551c45 93 100 142 196 142s150 -49 195 -142zM746 272l-128 262c-26 54 -59 89 -119 89c-61 0 -94 -35 -120 -89l-128 -262h495zM410 893v-129h-77v129h77zM665 893v-129h-78v129h78z" />
    <glyph glyph-name="Aring" unicode="&#xc5;" 
d="M694 551l270 -551h-84l-99 203h-565l-99 -203h-83l269 551c31 65 68 105 116 124c-42 22 -70 66 -70 120c0 82 67 148 150 148c82 0 150 -66 150 -148c0 -53 -29 -98 -71 -120c48 -19 84 -59 116 -124zM746 272l-128 262c-26 54 -59 89 -119 89c-61 0 -94 -35 -120 -89
l-128 -262h495zM499 694c54 0 99 44 99 99s-45 99 -99 99c-55 0 -99 -44 -99 -99s44 -99 99 -99z" />
    <glyph glyph-name="AE" unicode="&#xc6;" horiz-adv-x="1457" 
d="M101 0h-84l323 553c52 89 112 131 206 131h849v-71h-708c21 -15 36 -39 47 -70l58 -166h580v-67h-558l83 -240h498v-70h-557l-69 198h-552zM411 528l-154 -263h490l-87 256c-19 56 -52 96 -119 96c-57 0 -94 -28 -130 -89z" />
    <glyph glyph-name="Ccedilla" unicode="&#xc7;" horiz-adv-x="969" 
d="M442 -228h131c59 0 92 17 92 61c0 29 -15 58 -89 58h-94l32 109h-128c-229 0 -322 112 -322 342c0 228 91 342 322 342h536v-76h-502c-218 0 -277 -73 -277 -265c0 -194 60 -267 277 -267h502v-76h-345l-20 -57h34c94 0 144 -46 144 -113c0 -83 -78 -115 -165 -115h-142z
" />
    <glyph glyph-name="Egrave" unicode="&#xc8;" horiz-adv-x="987" 
d="M482 932l135 -181h-70l-155 181h90zM923 610h-537c-170 0 -238 -77 -243 -233h763v-70h-763c6 -156 73 -233 243 -233h537v-74h-537c-230 0 -322 113 -322 342c0 228 91 342 322 342h537v-74z" />
    <glyph glyph-name="Eacute" unicode="&#xc9;" horiz-adv-x="987" 
d="M477 751l134 181h90l-154 -181h-70zM923 610h-537c-170 0 -238 -77 -243 -233h763v-70h-763c6 -156 73 -233 243 -233h537v-74h-537c-230 0 -322 113 -322 342c0 228 91 342 322 342h537v-74z" />
    <glyph glyph-name="Ecircumflex" unicode="&#xca;" horiz-adv-x="987" 
d="M923 610h-537c-170 0 -238 -77 -243 -233h763v-70h-763c6 -156 73 -233 243 -233h537v-74h-537c-230 0 -322 113 -322 342c0 228 91 342 322 342h537v-74zM343 751l161 176h88l161 -176h-75l-130 128l-130 -128h-75z" />
    <glyph glyph-name="Edieresis" unicode="&#xcb;" horiz-adv-x="987" 
d="M458 893v-129h-78v129h78zM712 893v-129h-77v129h77zM923 610h-537c-170 0 -238 -77 -243 -233h763v-70h-763c6 -156 73 -233 243 -233h537v-74h-537c-230 0 -322 113 -322 342c0 228 91 342 322 342h537v-74z" />
    <glyph glyph-name="Igrave" unicode="&#xcc;" horiz-adv-x="274" 
d="M98 684h78v-684h-78v684zM71 932l134 -181h-70l-154 181h90z" />
    <glyph glyph-name="Iacute" unicode="&#xcd;" horiz-adv-x="274" 
d="M98 684h78v-684h-78v684zM67 751l135 181h90l-155 -181h-70z" />
    <glyph glyph-name="Icircumflex" unicode="&#xce;" horiz-adv-x="274" 
d="M98 684h78v-684h-78v684zM-68 751l161 176h88l161 -176h-75l-130 128l-130 -128h-75z" />
    <glyph glyph-name="Idieresis" unicode="&#xcf;" horiz-adv-x="274" 
d="M98 684h78v-684h-78v684zM48 893v-129h-77v129h77zM303 893v-129h-78v129h78z" />
    <glyph glyph-name="Eth" unicode="&#xd0;" horiz-adv-x="1062" 
d="M122 0v313h-118v67h118v304h554c231 0 322 -115 322 -342c0 -231 -94 -342 -322 -342h-554zM919 342c0 175 -56 266 -243 266h-477v-228h409v-67h-409v-237h477c186 0 243 89 243 266z" />
    <glyph glyph-name="Ntilde" unicode="&#xd1;" horiz-adv-x="1073" 
d="M175 606v-606h-77v684h66c164 0 210 -59 406 -321c185 -248 211 -285 317 -285h11v606h77v-684h-66c-157 0 -203 56 -402 316c-196 256 -218 290 -321 290h-11zM659 809c61 0 75 62 80 93h53c-5 -43 -31 -158 -132 -158c-94 0 -139 99 -216 99c-61 0 -76 -62 -81 -93h-53
c5 44 32 158 133 158c94 0 139 -99 216 -99z" />
    <glyph glyph-name="Ograve" unicode="&#xd2;" horiz-adv-x="1063" 
d="M532 693c300 0 469 -71 469 -351s-169 -351 -469 -351s-470 71 -470 351s170 351 470 351zM532 64c250 0 390 42 390 278s-140 277 -390 277s-391 -41 -391 -277s141 -278 391 -278zM460 932l135 -181h-70l-155 181h90z" />
    <glyph glyph-name="Oacute" unicode="&#xd3;" horiz-adv-x="1063" 
d="M532 693c300 0 469 -71 469 -351s-169 -351 -469 -351s-470 71 -470 351s170 351 470 351zM532 64c250 0 390 42 390 278s-140 277 -390 277s-391 -41 -391 -277s141 -278 391 -278zM460 751l135 181h90l-155 -181h-70z" />
    <glyph glyph-name="Ocircumflex" unicode="&#xd4;" horiz-adv-x="1063" 
d="M532 693c300 0 469 -71 469 -351s-169 -351 -469 -351s-470 71 -470 351s170 351 470 351zM532 64c250 0 390 42 390 278s-140 277 -390 277s-391 -41 -391 -277s141 -278 391 -278zM327 751l161 176h88l161 -176h-75l-130 128l-130 -128h-75z" />
    <glyph glyph-name="Otilde" unicode="&#xd5;" horiz-adv-x="1063" 
d="M532 693c300 0 469 -71 469 -351s-169 -351 -469 -351s-470 71 -470 351s170 351 470 351zM532 64c250 0 390 42 390 278s-140 277 -390 277s-391 -41 -391 -277s141 -278 391 -278zM630 809c61 0 75 62 80 93h53c-5 -43 -31 -158 -132 -158c-94 0 -139 99 -216 99
c-61 0 -76 -62 -81 -93h-53c5 44 32 158 133 158c94 0 139 -99 216 -99z" />
    <glyph glyph-name="Odieresis" unicode="&#xd6;" horiz-adv-x="1063" 
d="M532 693c300 0 469 -71 469 -351s-169 -351 -469 -351s-470 71 -470 351s170 351 470 351zM532 64c250 0 390 42 390 278s-140 277 -390 277s-391 -41 -391 -277s141 -278 391 -278zM443 893v-129h-77v129h77zM698 893v-129h-78v129h78z" />
    <glyph glyph-name="multiply" unicode="&#xd7;" horiz-adv-x="695" 
d="M395 346l227 -189l-40 -47l-235 194l-233 -194l-41 47l226 189l-226 189l41 47l233 -195l235 195l40 -47z" />
    <glyph glyph-name="Oslash" unicode="&#xd8;" horiz-adv-x="1065" 
d="M533 693c160 0 285 -20 364 -84l107 71l21 -31l-99 -66c50 -54 76 -131 76 -241c0 -280 -169 -351 -469 -351c-161 0 -286 20 -366 83l-105 -70l-21 31l98 65c-50 54 -76 132 -76 242c0 280 170 351 470 351zM142 342c0 -93 22 -156 64 -198l620 419
c-66 44 -166 56 -293 56c-250 0 -391 -41 -391 -277zM533 64c250 0 390 42 390 278c0 92 -22 155 -64 197l-620 -419c66 -44 165 -56 294 -56z" />
    <glyph glyph-name="Ugrave" unicode="&#xd9;" horiz-adv-x="1004" 
d="M441 932l135 -181h-70l-155 181h90zM89 323v361h78v-361c0 -196 77 -257 335 -257c260 0 336 61 336 257v361h77v-361c0 -241 -109 -332 -413 -332c-297 0 -413 86 -413 332z" />
    <glyph glyph-name="Uacute" unicode="&#xda;" horiz-adv-x="1004" 
d="M437 751l135 181h90l-155 -181h-70zM89 323v361h78v-361c0 -196 77 -257 335 -257c260 0 336 61 336 257v361h77v-361c0 -241 -109 -332 -413 -332c-297 0 -413 86 -413 332z" />
    <glyph glyph-name="Ucircumflex" unicode="&#xdb;" horiz-adv-x="1004" 
d="M89 323v361h78v-361c0 -196 77 -257 335 -257c260 0 336 61 336 257v361h77v-361c0 -241 -109 -332 -413 -332c-297 0 -413 86 -413 332zM297 751l161 176h88l161 -176h-75l-130 128l-130 -128h-75z" />
    <glyph glyph-name="Udieresis" unicode="&#xdc;" horiz-adv-x="1004" 
d="M414 893v-129h-78v129h78zM668 893v-129h-77v129h77zM89 323v361h78v-361c0 -196 77 -257 335 -257c260 0 336 61 336 257v361h77v-361c0 -241 -109 -332 -413 -332c-297 0 -413 86 -413 332z" />
    <glyph glyph-name="Yacute" unicode="&#xdd;" horiz-adv-x="903" 
d="M383 751l134 181h90l-154 -181h-70zM9 684h113l243 -263c30 -32 68 -72 86 -118c18 46 57 85 87 118l243 263h113l-312 -325c-34 -35 -92 -95 -92 -149v-210h-77v210c0 54 -59 114 -92 149z" />
    <glyph glyph-name="Ydieresis" unicode="&#x178;" horiz-adv-x="903" 
d="M366 893v-129h-77v129h77zM621 893v-129h-78v129h78zM9 684h113l243 -263c30 -32 68 -72 86 -118c18 46 57 85 87 118l243 263h113l-312 -325c-34 -35 -92 -95 -92 -149v-210h-77v210c0 54 -59 114 -92 149z" />
    <glyph glyph-name="Thorn" unicode="&#xde;" horiz-adv-x="961" 
d="M98 684h77v-122h502c162 0 246 -97 246 -216c0 -120 -84 -217 -246 -217h-502v-129h-77v684zM175 198h505c114 0 162 76 162 147s-49 148 -162 148h-505v-295z" />
    <glyph glyph-name="germandbls" unicode="&#xdf;" horiz-adv-x="1907" 
d="M53 70h600c114 0 167 40 167 112s-54 108 -182 119l-339 28c-152 12 -232 67 -232 180c0 123 97 175 228 175h556v-70h-562c-91 0 -143 -32 -143 -103c0 -68 47 -100 173 -111l330 -28c162 -14 250 -65 250 -187c0 -114 -77 -185 -250 -185h-596v70zM1014 70h600
c114 0 167 40 167 112s-54 108 -182 119l-339 28c-152 12 -232 67 -232 180c0 123 97 175 228 175h556v-70h-562c-91 0 -143 -32 -143 -103c0 -68 47 -100 173 -111l330 -28c162 -14 250 -65 250 -187c0 -114 -77 -185 -250 -185h-596v70z" />
    <glyph glyph-name="agrave" unicode="&#xe0;" 
d="M694 551l270 -551h-84l-99 203h-565l-99 -203h-83l269 551c45 93 100 142 196 142s150 -49 195 -142zM746 272l-128 262c-26 54 -59 89 -119 89c-61 0 -94 -35 -120 -89l-128 -262h495zM426 932l135 -181h-70l-155 181h90z" />
    <glyph glyph-name="aacute" unicode="&#xe1;" 
d="M694 551l270 -551h-84l-99 203h-565l-99 -203h-83l269 551c45 93 100 142 196 142s150 -49 195 -142zM746 272l-128 262c-26 54 -59 89 -119 89c-61 0 -94 -35 -120 -89l-128 -262h495zM421 751l135 181h90l-155 -181h-70z" />
    <glyph glyph-name="acircumflex" unicode="&#xe2;" 
d="M694 551l270 -551h-84l-99 203h-565l-99 -203h-83l269 551c45 93 100 142 196 142s150 -49 195 -142zM746 272l-128 262c-26 54 -59 89 -119 89c-61 0 -94 -35 -120 -89l-128 -262h495zM294 751l161 176h88l161 -176h-75l-130 128l-130 -128h-75z" />
    <glyph glyph-name="atilde" unicode="&#xe3;" 
d="M694 551l270 -551h-84l-99 203h-565l-99 -203h-83l269 551c45 93 100 142 196 142s150 -49 195 -142zM746 272l-128 262c-26 54 -59 89 -119 89c-61 0 -94 -35 -120 -89l-128 -262h495zM607 809c61 0 75 62 80 93h53c-5 -43 -31 -158 -132 -158c-94 0 -139 99 -216 99
c-61 0 -76 -62 -81 -93h-53c5 44 32 158 133 158c94 0 139 -99 216 -99z" />
    <glyph glyph-name="adieresis" unicode="&#xe4;" 
d="M694 551l270 -551h-84l-99 203h-565l-99 -203h-83l269 551c45 93 100 142 196 142s150 -49 195 -142zM746 272l-128 262c-26 54 -59 89 -119 89c-61 0 -94 -35 -120 -89l-128 -262h495zM410 893v-129h-77v129h77zM665 893v-129h-78v129h78z" />
    <glyph glyph-name="aring" unicode="&#xe5;" 
d="M694 551l270 -551h-84l-99 203h-565l-99 -203h-83l269 551c31 65 68 105 116 124c-42 22 -70 66 -70 120c0 82 67 148 150 148c82 0 150 -66 150 -148c0 -53 -29 -98 -71 -120c48 -19 84 -59 116 -124zM746 272l-128 262c-26 54 -59 89 -119 89c-61 0 -94 -35 -120 -89
l-128 -262h495zM499 694c54 0 99 44 99 99s-45 99 -99 99c-55 0 -99 -44 -99 -99s44 -99 99 -99z" />
    <glyph glyph-name="ae" unicode="&#xe6;" horiz-adv-x="1457" 
d="M101 0h-84l323 553c52 89 112 131 206 131h849v-71h-708c21 -15 36 -39 47 -70l58 -166h580v-67h-558l83 -240h498v-70h-557l-69 198h-552zM411 528l-154 -263h490l-87 256c-19 56 -52 96 -119 96c-57 0 -94 -28 -130 -89z" />
    <glyph glyph-name="ccedilla" unicode="&#xe7;" horiz-adv-x="969" 
d="M442 -228h131c59 0 92 17 92 61c0 29 -15 58 -89 58h-94l32 109h-128c-229 0 -322 112 -322 342c0 228 91 342 322 342h536v-76h-502c-218 0 -277 -73 -277 -265c0 -194 60 -267 277 -267h502v-76h-345l-20 -57h34c94 0 144 -46 144 -113c0 -83 -78 -115 -165 -115h-142z
" />
    <glyph glyph-name="egrave" unicode="&#xe8;" horiz-adv-x="987" 
d="M482 932l135 -181h-70l-155 181h90zM923 610h-537c-170 0 -238 -77 -243 -233h763v-70h-763c6 -156 73 -233 243 -233h537v-74h-537c-230 0 -322 113 -322 342c0 228 91 342 322 342h537v-74z" />
    <glyph glyph-name="eacute" unicode="&#xe9;" horiz-adv-x="987" 
d="M477 751l134 181h90l-154 -181h-70zM923 610h-537c-170 0 -238 -77 -243 -233h763v-70h-763c6 -156 73 -233 243 -233h537v-74h-537c-230 0 -322 113 -322 342c0 228 91 342 322 342h537v-74z" />
    <glyph glyph-name="ecircumflex" unicode="&#xea;" horiz-adv-x="987" 
d="M923 610h-537c-170 0 -238 -77 -243 -233h763v-70h-763c6 -156 73 -233 243 -233h537v-74h-537c-230 0 -322 113 -322 342c0 228 91 342 322 342h537v-74zM343 751l161 176h88l161 -176h-75l-130 128l-130 -128h-75z" />
    <glyph glyph-name="edieresis" unicode="&#xeb;" horiz-adv-x="987" 
d="M458 893v-129h-78v129h78zM712 893v-129h-77v129h77zM923 610h-537c-170 0 -238 -77 -243 -233h763v-70h-763c6 -156 73 -233 243 -233h537v-74h-537c-230 0 -322 113 -322 342c0 228 91 342 322 342h537v-74z" />
    <glyph glyph-name="igrave" unicode="&#xec;" horiz-adv-x="274" 
d="M98 684h78v-684h-78v684zM71 932l134 -181h-70l-154 181h90z" />
    <glyph glyph-name="iacute" unicode="&#xed;" horiz-adv-x="274" 
d="M98 684h78v-684h-78v684zM67 751l135 181h90l-155 -181h-70z" />
    <glyph glyph-name="icircumflex" unicode="&#xee;" horiz-adv-x="274" 
d="M98 684h78v-684h-78v684zM-68 751l161 176h88l161 -176h-75l-130 128l-130 -128h-75z" />
    <glyph glyph-name="idieresis" unicode="&#xef;" horiz-adv-x="274" 
d="M98 684h78v-684h-78v684zM48 893v-129h-77v129h77zM303 893v-129h-78v129h78z" />
    <glyph glyph-name="eth" unicode="&#xf0;" horiz-adv-x="1084" 
d="M144 0v313h-118v67h118v304h554c231 0 322 -115 322 -342c0 -231 -94 -342 -322 -342h-554zM941 342c0 175 -56 266 -243 266h-477v-228h409v-67h-409v-237h477c186 0 243 89 243 266z" />
    <glyph glyph-name="ntilde" unicode="&#xf1;" horiz-adv-x="1073" 
d="M175 606v-606h-77v684h66c164 0 210 -59 406 -321c185 -248 211 -285 317 -285h11v606h77v-684h-66c-157 0 -203 56 -402 316c-196 256 -218 290 -321 290h-11zM659 809c61 0 75 62 80 93h53c-5 -43 -31 -158 -132 -158c-94 0 -139 99 -216 99c-61 0 -76 -62 -81 -93h-53
c5 44 32 158 133 158c94 0 139 -99 216 -99z" />
    <glyph glyph-name="ograve" unicode="&#xf2;" horiz-adv-x="1063" 
d="M532 693c300 0 469 -71 469 -351s-169 -351 -469 -351s-470 71 -470 351s170 351 470 351zM532 64c250 0 390 42 390 278s-140 277 -390 277s-391 -41 -391 -277s141 -278 391 -278zM460 932l135 -181h-70l-155 181h90z" />
    <glyph glyph-name="oacute" unicode="&#xf3;" horiz-adv-x="1063" 
d="M532 693c300 0 469 -71 469 -351s-169 -351 -469 -351s-470 71 -470 351s170 351 470 351zM532 64c250 0 390 42 390 278s-140 277 -390 277s-391 -41 -391 -277s141 -278 391 -278zM460 751l135 181h90l-155 -181h-70z" />
    <glyph glyph-name="ocircumflex" unicode="&#xf4;" horiz-adv-x="1063" 
d="M532 693c300 0 469 -71 469 -351s-169 -351 -469 -351s-470 71 -470 351s170 351 470 351zM532 64c250 0 390 42 390 278s-140 277 -390 277s-391 -41 -391 -277s141 -278 391 -278zM327 751l161 176h88l161 -176h-75l-130 128l-130 -128h-75z" />
    <glyph glyph-name="otilde" unicode="&#xf5;" horiz-adv-x="1063" 
d="M532 693c300 0 469 -71 469 -351s-169 -351 -469 -351s-470 71 -470 351s170 351 470 351zM532 64c250 0 390 42 390 278s-140 277 -390 277s-391 -41 -391 -277s141 -278 391 -278zM630 809c61 0 75 62 80 93h53c-5 -43 -31 -158 -132 -158c-94 0 -139 99 -216 99
c-61 0 -76 -62 -81 -93h-53c5 44 32 158 133 158c94 0 139 -99 216 -99z" />
    <glyph glyph-name="odieresis" unicode="&#xf6;" horiz-adv-x="1063" 
d="M532 693c300 0 469 -71 469 -351s-169 -351 -469 -351s-470 71 -470 351s170 351 470 351zM532 64c250 0 390 42 390 278s-140 277 -390 277s-391 -41 -391 -277s141 -278 391 -278zM443 893v-129h-77v129h77zM698 893v-129h-78v129h78z" />
    <glyph glyph-name="divide" unicode="&#xf7;" horiz-adv-x="769" 
d="M693 379v-66h-617v66h617zM425 641v-127h-81v127h81zM425 178v-127h-81v127h81z" />
    <glyph glyph-name="oslash" unicode="&#xf8;" horiz-adv-x="1065" 
d="M533 693c160 0 285 -20 364 -84l107 71l21 -31l-99 -66c50 -54 76 -131 76 -241c0 -280 -169 -351 -469 -351c-161 0 -286 20 -366 83l-105 -70l-21 31l98 65c-50 54 -76 132 -76 242c0 280 170 351 470 351zM142 342c0 -93 22 -156 64 -198l620 419
c-66 44 -166 56 -293 56c-250 0 -391 -41 -391 -277zM533 64c250 0 390 42 390 278c0 92 -22 155 -64 197l-620 -419c66 -44 165 -56 294 -56z" />
    <glyph glyph-name="ugrave" unicode="&#xf9;" horiz-adv-x="1004" 
d="M441 932l135 -181h-70l-155 181h90zM89 323v361h78v-361c0 -196 77 -257 335 -257c260 0 336 61 336 257v361h77v-361c0 -241 -109 -332 -413 -332c-297 0 -413 86 -413 332z" />
    <glyph glyph-name="uacute" unicode="&#xfa;" horiz-adv-x="1004" 
d="M437 751l135 181h90l-155 -181h-70zM89 323v361h78v-361c0 -196 77 -257 335 -257c260 0 336 61 336 257v361h77v-361c0 -241 -109 -332 -413 -332c-297 0 -413 86 -413 332z" />
    <glyph glyph-name="ucircumflex" unicode="&#xfb;" horiz-adv-x="1004" 
d="M89 323v361h78v-361c0 -196 77 -257 335 -257c260 0 336 61 336 257v361h77v-361c0 -241 -109 -332 -413 -332c-297 0 -413 86 -413 332zM297 751l161 176h88l161 -176h-75l-130 128l-130 -128h-75z" />
    <glyph glyph-name="udieresis" unicode="&#xfc;" horiz-adv-x="1004" 
d="M414 893v-129h-78v129h78zM668 893v-129h-77v129h77zM89 323v361h78v-361c0 -196 77 -257 335 -257c260 0 336 61 336 257v361h77v-361c0 -241 -109 -332 -413 -332c-297 0 -413 86 -413 332z" />
    <glyph glyph-name="yacute" unicode="&#xfd;" horiz-adv-x="903" 
d="M383 751l134 181h90l-154 -181h-70zM9 684h113l243 -263c30 -32 68 -72 86 -118c18 46 57 85 87 118l243 263h113l-312 -325c-34 -35 -92 -95 -92 -149v-210h-77v210c0 54 -59 114 -92 149z" />
    <glyph glyph-name="ydieresis" unicode="&#xff;" horiz-adv-x="903" 
d="M366 893v-129h-77v129h77zM621 893v-129h-78v129h78zM9 684h113l243 -263c30 -32 68 -72 86 -118c18 46 57 85 87 118l243 263h113l-312 -325c-34 -35 -92 -95 -92 -149v-210h-77v210c0 54 -59 114 -92 149z" />
    <glyph glyph-name="thorn" unicode="&#xfe;" horiz-adv-x="961" 
d="M98 684h77v-122h502c162 0 246 -97 246 -216c0 -120 -84 -217 -246 -217h-502v-129h-77v684zM175 198h505c114 0 162 76 162 147s-49 148 -162 148h-505v-295z" />
    <glyph glyph-name="space" unicode=" " horiz-adv-x="320" 
 />
    </font>
</defs>
</svg>
